<svg version="1.1" viewBox="0.0 0.0 1133.8582677165355 1133.8582677165355" fill="none" stroke="none" stroke-linecap="square" stroke-miterlimit="10" xmlns:xlink="http://www.w3.org/1999/xlink" xmlns="http://www.w3.org/2000/svg"><clipPath id="p.0"><path d="m0 0l1133.8583 0l0 1133.8583l-1133.8583 0l0 -1133.8583z" clip-rule="nonzero"/></clipPath><g clip-path="url(#p.0)"><path fill="#ffffff" fill-opacity="0.0" d="m0 0l1133.8583 0l0 1133.8583l-1133.8583 0z" fill-rule="evenodd"/><path fill="#ffffff" d="m137.30708 634.6552l0 0c0 -237.27368 192.34834 -429.62204 429.62207 -429.62204l0 0c113.94287 0 223.21887 45.263626 303.78864 125.833405c80.56976 80.56976 125.833435 189.84583 125.833435 303.78864l0 0c0 237.27374 -192.34839 429.622 -429.62207 429.622l0 0c-237.27371 0 -429.62207 -192.34827 -429.62207 -429.622zm71.40318 0l0 0c0 197.8388 160.38007 358.21887 358.21887 358.21887c197.8388 0 358.21887 -160.38007 358.21887 -358.21887l0 0c0 -197.8388 -160.38007 -358.21884 -358.21887 -358.21884l0 0c-197.8388 0 -358.21887 160.38004 -358.21887 358.21884z" fill-rule="evenodd"/><path fill="#ffffff" d="m901.1631 246.48668l46.80316 46.803146l-97.82678 97.82678l-46.80316 -46.80316z" fill-rule="evenodd"/><path fill="#ffffff" d="m369.46457 102.85433l0 0l0 0c0 -8.800179 3.4958496 -17.239922 9.718506 -23.462585c6.222687 -6.222664 14.662415 -9.718521 23.462585 -9.718521l33.338593 0c3.0517578E-4 0 5.493164E-4 2.5177002E-4 5.493164E-4 5.569458E-4l-5.493164E-4 66.36165l0 0c0 3.0517578E-4 -2.4414062E-4 5.493164E-4 -5.493164E-4 5.493164E-4l-33.338043 -5.493164E-4l0 0c-18.325409 0 -33.18109 -14.855682 -33.18109 -33.1811z" fill-rule="evenodd"/><path fill="#ffffff" d="m764.3937 102.76247l0 0l0 0c0 8.800179 -3.4958496 17.239922 -9.718506 23.462585c-6.2226562 6.2226562 -14.662415 9.718521 -23.462585 9.718521l-33.338562 0c-3.0517578E-4 0 -5.493164E-4 -2.4414062E-4 -5.493164E-4 -5.493164E-4l5.493164E-4 -66.36166l0 0c0 -3.0517578E-4 2.4414062E-4 -5.569458E-4 5.493164E-4 -5.569458E-4l33.338013 5.569458E-4l0 0c18.32544 0 33.18109 14.855682 33.18109 33.1811z" fill-rule="evenodd"/><path fill="#ffffff" d="m702.85016 69.6601l0 66.20472l-271.84253 0l0 -66.20472z" fill-rule="evenodd"/><path fill="#ffffff" d="m573.54333 632.707l0 0l0 0c-8.800232 0 -17.23993 -3.4958496 -23.462585 -9.718506c-6.2227173 -6.2226562 -9.718567 -14.662415 -9.718567 -23.462585l0 -33.338562c0 -3.0517578E-4 2.4414062E-4 -5.493164E-4 5.493164E-4 -5.493164E-4l66.361694 5.493164E-4l0 0c3.0517578E-4 0 5.493164E-4 2.4414062E-4 5.493164E-4 5.493164E-4l-5.493164E-4 33.338013l0 0c0 18.32544 -14.855713 33.18109 -33.18109 33.18109z" fill-rule="evenodd"/><path fill="#ffffff" d="m573.4514 348.70172l0 0l0 0c8.800232 0 17.23993 3.4958801 23.462585 9.718536c6.2227173 6.2226562 9.718567 14.662415 9.718567 23.462585l0 33.338562c0 3.0517578E-4 -2.4414062E-4 5.493164E-4 -5.493164E-4 5.493164E-4l-66.361694 -5.493164E-4l0 0c-3.0517578E-4 0 -5.493164E-4 -2.4414062E-4 -5.493164E-4 -5.493164E-4l5.493164E-4 -33.338013l0 0c0 -18.32544 14.855713 -33.18112 33.18109 -33.18112z" fill-rule="evenodd"/><path fill="#ffffff" d="m540.34906 392.95953l66.20477 0l0 195.4961l-66.20477 0z" fill-rule="evenodd"/><path fill="#ffffff" d="m958.7662 235.65749l0 0l0 0c6.1897583 6.1897736 9.667114 14.584915 9.667114 23.338577c0 8.753662 -3.477356 17.148804 -9.667114 23.338593l-23.685059 23.685028c-1.8310547E-4 2.1362305E-4 -5.493164E-4 2.1362305E-4 -7.9345703E-4 0l-46.67639 -46.677155l0 0c-1.8310547E-4 -2.1362305E-4 -1.8310547E-4 -5.79834E-4 0 -7.9345703E-4l23.685059 -23.68425l0 0c12.889526 -12.889542 33.78766 -12.889542 46.677185 0z" fill-rule="evenodd"/></g></svg>
